<?xml version="1.0" encoding="UTF-8" standalone="no"?>
<svg
   style="width:24px;height:24px"
   viewBox="0 0 24 24"
   version="1.1"
   id="svg1"
   sodipodi:docname="magnify.svg"
   inkscape:version="1.3.2 (091e20e, 2023-11-25, custom)"
   xmlns:inkscape="http://www.inkscape.org/namespaces/inkscape"
   xmlns:sodipodi="http://sodipodi.sourceforge.net/DTD/sodipodi-0.dtd"
   xmlns="http://www.w3.org/2000/svg"
   xmlns:svg="http://www.w3.org/2000/svg">
  <defs
     id="defs1" />
  <sodipodi:namedview
     id="namedview1"
     pagecolor="#ffffff"
     bordercolor="#000000"
     borderopacity="0.25"
     inkscape:showpageshadow="2"
     inkscape:pageopacity="0.0"
     inkscape:pagecheckerboard="0"
     inkscape:deskcolor="#d1d1d1"
     inkscape:zoom="32"
     inkscape:cx="8.625"
     inkscape:cy="10.046875"
     inkscape:window-width="2560"
     inkscape:window-height="1530"
     inkscape:window-x="-11"
     inkscape:window-y="-11"
     inkscape:window-maximized="1"
     inkscape:current-layer="svg1" />
  <ellipse
     style="fill:#ef934b;fill-opacity:1;stroke-width:1.35924"
     id="path2"
     cx="11.997868"
     cy="12.007526"
     rx="12.006037"
     ry="11.995977" />
  <path
     fill="#ef934b"
     d="M 9.8639267,2.9425379 A 6.5,6.5 0 0 1 16.363927,9.442538 c 0,1.61 -0.59,3.09 -1.56,4.23 l 0.27,0.27 h 0.79 l 5,5 -1.5,1.5 -5,-5 v -0.79 l -0.27,-0.27 c -1.14,0.97 -2.62,1.56 -4.2300003,1.56 a 6.5,6.5 0 0 1 -6.5000001,-6.5 6.5,6.5 0 0 1 6.5000001,-6.5000001 m 0,2 c -2.5000001,0 -4.5000001,2 -4.5000001,4.5000001 0,2.5 2,4.5 4.5000001,4.5 2.5000003,0 4.5000003,-2 4.5000003,-4.5 0,-2.5000001 -2,-4.5000001 -4.5000003,-4.5000001 z"
     id="path1"
     style="fill:#ffffff;fill-opacity:1" />
</svg>
