<svg xmlns="http://www.w3.org/2000/svg" width="1024" height="1024" viewBox="0 0 1024 1024" version="1.1">
	<path d="M 634 170.581 C 632.075 170.806, 626.225 171.477, 621 172.071 C 598.778 174.598, 573.376 182.308, 550.348 193.516 C 514.020 211.195, 483.719 237.665, 461.828 270.842 C 433.255 314.147, 420.832 361.364, 424.953 411 C 430.628 479.357, 460.061 536.240, 548.362 649.500 C 565.900 671.996, 604.959 720.686, 614.542 732 C 630.711 751.090, 638.987 756.497, 652 756.473 C 666.349 756.446, 674.005 751.011, 695.264 725.758 C 768.521 638.739, 822.193 564.899, 848.103 515.483 C 883.897 447.219, 889.389 378.684, 864.332 313 C 851.760 280.046, 830.107 249.138, 803.611 226.325 C 770.195 197.555, 730.102 179.377, 685 172.547 C 674.936 171.023, 641.300 169.727, 634 170.581 M 543 276.015 C 527.107 278.229, 517.639 281.869, 513.594 287.323 C 511.509 290.134, 511.499 290.532, 511.235 382.694 C 510.982 470.749, 511.055 475.215, 512.735 474.696 C 513.706 474.395, 517.674 473.006, 521.553 471.609 C 533.936 467.148, 545.484 465.698, 563.500 466.344 C 580.166 466.942, 588.043 468.251, 601.500 472.661 C 615.097 477.116, 631.572 486.394, 637.405 492.881 C 638.453 494.047, 639.690 495, 640.155 495 C 640.620 495, 641 452.941, 641 401.535 L 641 308.070 637.841 304.472 C 628.216 293.509, 604.265 281.734, 582.975 277.498 C 573.610 275.635, 551.596 274.818, 543 276.015 M 723.500 277.522 C 701.255 281.111, 681.336 290.123, 667.931 302.661 L 663 307.274 663 400.637 C 663 451.987, 663.265 494, 663.589 494 C 663.912 494, 666.500 491.967, 669.339 489.483 C 683.858 476.776, 712.336 467.508, 740.500 466.324 C 760.424 465.486, 773.861 467.657, 791.250 474.523 C 792.909 475.178, 793 470.437, 792.996 383.357 C 792.993 293.936, 792.941 291.415, 791.035 288.290 C 788.574 284.254, 783.316 281.551, 772.769 278.901 C 761.787 276.142, 736.447 275.433, 723.500 277.522 M 90.132 350.078 C 80.983 351.876, 72.119 358.001, 68.479 365.041 C 65.824 370.176, 64.737 378.546, 65.975 384.331 C 68.627 396.724, 76.078 402.104, 98.880 408.089 C 112.308 411.614, 117.232 417.722, 113.619 426.370 C 110.729 433.285, 99.161 436.071, 90.208 432.008 C 86.649 430.393, 85.508 429.135, 83.520 424.640 L 81.123 419.220 74.311 419.750 C 64.161 420.539, 62.688 421.292, 63.546 425.255 C 66.834 440.444, 80.309 450.018, 98.355 449.988 C 113.628 449.963, 125.803 443.905, 131.302 433.595 C 133.080 430.261, 133.487 427.827, 133.493 420.500 C 133.499 412.430, 133.210 411.006, 130.691 406.721 C 127.074 400.567, 119.731 395.721, 110 393.065 C 105.875 391.938, 99.846 390.306, 96.602 389.438 C 88.224 387.194, 85 383.737, 85 377 C 85 372.667, 85.454 371.392, 87.850 368.997 C 95.006 361.841, 108.007 364.851, 112.806 374.775 C 113.738 376.701, 114.842 378.261, 115.259 378.242 C 124.588 377.807, 131.948 376.578, 132.408 375.379 C 132.709 374.595, 132.045 371.522, 130.933 368.550 C 125.576 354.233, 108.447 346.478, 90.132 350.078 M 316.919 358.711 C 316.874 363.545, 316.852 371.909, 316.870 377.298 L 316.903 387.096 313.701 384.393 C 306.235 378.091, 295.512 376.243, 285.734 379.575 C 263.893 387.017, 257.514 423.514, 274.999 440.999 C 285.627 451.627, 304.283 453.077, 313.971 444.027 C 316.530 441.637, 317 441.480, 317 443.017 C 317 447.570, 317.830 448, 326.617 448 L 335.019 448 334.760 399.250 L 334.500 350.500 325.750 350.211 L 317 349.922 316.919 358.711 M 148.703 361.631 C 148.316 362.017, 148 366.059, 148 370.612 L 148 378.890 143.250 379.195 L 138.500 379.500 138.500 386.500 L 138.500 393.500 143.163 393.801 L 147.827 394.103 148.163 414.801 C 148.564 439.443, 149.283 441.837, 157.522 445.962 C 161.792 448.100, 163.824 448.429, 172.969 448.462 L 183.500 448.500 183.500 441.511 L 183.500 434.521 176.878 433.511 C 166.686 431.955, 167 432.643, 167 411.878 L 167 394 174.981 394 C 184.112 394, 184.398 393.690, 183.812 384.434 L 183.500 379.500 175.288 379.210 L 167.077 378.920 166.788 370.210 L 166.500 361.500 157.953 361.214 C 153.252 361.057, 149.089 361.244, 148.703 361.631 M 193.395 380.413 C 192.281 383.315, 193.648 432.353, 194.957 436.477 C 196.686 441.924, 202.526 447.524, 208.036 449.019 C 214.787 450.851, 224.746 449.689, 231.152 446.322 C 234.094 444.776, 236.838 443.359, 237.250 443.172 C 237.662 442.986, 238 443.987, 238 445.398 C 238 448.564, 240.127 449.221, 249.031 448.803 L 255.500 448.500 255.500 414 L 255.500 379.500 246.872 379.213 L 238.243 378.926 237.792 400.713 C 237.287 425.116, 236.535 428.484, 230.810 431.974 C 225.149 435.426, 215.651 433.963, 213.371 429.287 C 212.892 428.304, 212.275 416.700, 212 403.500 L 211.500 379.500 202.734 379.211 C 195.697 378.979, 193.854 379.216, 193.395 380.413 M 341.561 379.901 C 341.255 380.396, 343.746 387.708, 347.097 396.151 C 357.242 421.712, 366.291 445.441, 366.299 446.500 C 366.303 447.050, 364.427 452.589, 362.130 458.808 C 359.833 465.027, 358.216 470.540, 358.536 471.058 C 358.856 471.576, 362.848 472, 367.406 472 L 375.694 472 382.008 454.750 C 385.481 445.262, 393.184 424.720, 399.127 409.099 C 405.070 393.479, 409.696 380.317, 409.407 379.849 C 409.118 379.382, 404.885 379, 399.999 379 L 391.116 379 383.411 402.355 L 375.705 425.710 368.454 404.105 C 364.466 392.222, 360.885 381.712, 360.495 380.750 C 359.895 379.269, 358.429 379, 350.952 379 C 346.093 379, 341.868 379.405, 341.561 379.901 M 293.218 394.606 C 286.615 397.975, 283.514 405.527, 284.220 416.525 C 285.028 429.115, 289.905 434.500, 300.500 434.500 C 311.753 434.500, 316.500 428.418, 316.500 414 C 316.500 404.458, 314.551 399.128, 309.791 395.650 C 306.088 392.945, 297.532 392.406, 293.218 394.606 M 140.360 467.140 C 133.237 467.969, 125.639 471.515, 120.960 476.194 C 115.955 481.199, 113.778 487.068, 113.778 495.556 C 113.778 505.064, 117.005 511.405, 124.398 516.424 C 129.216 519.694, 132.382 520.884, 149.663 525.918 C 158.611 528.525, 162 531.973, 162 538.471 C 162 548.993, 146.978 554.530, 136.205 547.978 C 133.313 546.220, 131.230 542.987, 129.593 537.720 C 129.109 536.163, 128.193 536.014, 122.270 536.532 C 109.679 537.632, 109.398 537.941, 112.554 547.205 C 118.214 563.815, 141.721 571.689, 162.470 563.925 C 184.394 555.723, 188.840 527.356, 170.144 514.972 C 165.583 511.951, 163.494 511.221, 147 506.884 C 135.996 503.990, 133 501.281, 133 494.223 C 133 488.182, 135.791 484.672, 141.904 483.026 C 149.955 480.858, 156.695 484.218, 161.101 492.598 L 162.702 495.642 171.101 494.762 C 175.720 494.277, 179.887 493.498, 180.360 493.030 C 182.257 491.155, 177.794 481.574, 172.610 476.391 C 164.687 468.469, 154.371 465.510, 140.360 467.140 M 349.045 478.446 C 348.263 479.388, 347.959 482.690, 348.172 487.905 L 348.500 495.918 343.500 496.209 L 338.500 496.500 338.500 503 L 338.500 509.500 343.282 510 L 348.063 510.500 348.609 531 C 349.245 554.937, 350.088 557.967, 357.250 562.062 C 361.041 564.229, 362.688 564.492, 372.500 564.496 L 383.500 564.500 383.500 557.500 L 383.500 550.500 376.668 550 C 366.940 549.288, 367 549.424, 367 527.849 L 367 510.081 375.250 509.790 L 383.500 509.500 383.500 503 L 383.500 496.500 375.250 496.210 L 367 495.919 367 487.660 C 367 482.569, 366.540 478.940, 365.800 478.200 C 364.016 476.416, 350.565 476.614, 349.045 478.446 M 220.942 494.888 C 216.855 496.224, 213.702 498.056, 210.750 500.809 C 208.100 503.281, 208 503.298, 208 501.269 C 208 496.445, 207.231 496, 198.893 496 C 193.291 496, 190.975 496.363, 190.915 497.250 C 190.868 497.938, 190.868 518.757, 190.915 543.516 C 190.962 568.276, 191 589.106, 191 589.805 C 191 590.760, 193.183 591.006, 199.750 590.789 L 208.500 590.500 209 574.792 L 209.500 559.084 213.905 562.045 C 219.709 565.947, 225.210 567.338, 232.307 566.701 C 243.812 565.668, 252.666 559.213, 257.894 548.046 C 260.195 543.132, 260.491 541.246, 260.495 531.500 C 260.499 522.969, 260.051 519.280, 258.500 515.067 C 255.819 507.783, 248.531 499.907, 241.770 496.988 C 236.121 494.548, 225.315 493.459, 220.942 494.888 M 291 495.538 C 274.302 500.192, 265.270 513.839, 266.187 533.029 C 266.905 548.039, 273.600 558.277, 286.580 564.211 C 293.577 567.411, 309.322 567.458, 316.217 564.301 C 323.284 561.066, 330.280 553.984, 333.572 546.734 C 336.047 541.284, 336.402 539.306, 336.394 531 C 336.383 518.596, 333.832 511.702, 326.565 504.435 C 317.900 495.770, 303.284 492.113, 291 495.538 M 512.526 503.950 C 509.776 509.268, 511.337 516.587, 515.421 517.526 C 516.565 517.788, 537.525 518.115, 562 518.252 L 606.500 518.500 613 521.596 C 616.575 523.298, 622.875 527.530, 627 530.999 C 637.734 540.026, 641.383 541.499, 653 541.496 C 664.221 541.494, 667.351 540.189, 677.195 531.405 C 692.070 518.133, 692.755 518, 746.555 518 C 787.074 518, 789.790 517.889, 791.345 516.171 C 793.468 513.825, 793.526 506.196, 791.443 503.223 L 789.887 501 745.603 501 C 704.777 501, 700.717 501.154, 693.596 502.975 C 683.851 505.468, 675.970 509.655, 667.305 516.944 C 659.131 523.820, 657.054 525, 653.131 525 C 648.437 525, 645.305 523.408, 637.250 516.928 C 633.134 513.617, 626.671 509.348, 622.887 507.443 C 610.588 501.249, 608.412 501.031, 558.776 501.015 L 514.051 501 512.526 503.950 M 219.643 509.977 C 212.531 512.236, 209.054 518.934, 209.022 530.434 C 209.005 536.449, 209.501 539.404, 211.071 542.647 C 216.397 553.649, 231.716 554.480, 238.681 544.145 C 242.971 537.779, 242.699 522.114, 238.192 516.062 C 233.984 510.410, 226.258 507.876, 219.643 509.977 M 294.020 511.250 C 287.429 514.617, 285.500 519.088, 285.500 531 C 285.500 539.300, 285.805 540.990, 287.910 544.377 C 293.203 552.892, 304.993 554.242, 312.090 547.145 C 318.475 540.760, 319.727 526.560, 314.704 517.494 C 312.311 513.174, 305.576 509, 301 509 C 299.583 509, 296.442 510.012, 294.020 511.250" stroke="none" fill="#000000" fill-rule="evenodd"/>
</svg>