<?xml version="1.0" encoding="utf-8"?>
<svg xmlns="http://www.w3.org/2000/svg" viewBox="56.553 36.524 875.569 329.388" width="875.569pt" height="329.388pt">
  
  <g transform="matrix(1, 0, 0, 1, 247.07492065429688, -30.00192642211914)">
    <g>
      <path d="M 450.938 105.082 C 471.268 88.082 497.628 78.082 524.228 78.642 C 549.518 78.052 574.518 87.052 594.738 102.002 C 624.098 123.912 640.578 161.062 638.958 197.462 C 638.178 221.142 628.098 243.262 616.188 263.302 C 605.978 281.032 594.118 297.752 581.718 314.012 C 564.238 336.462 546.158 358.512 526.418 379.022 C 526.018 379.052 525.208 379.112 524.808 379.142 C 508.748 361.002 493.378 342.272 477.918 323.622 C 457.988 298.722 439.008 272.802 424.308 244.412 C 411.338 219.022 406.728 188.732 415.088 161.172 C 420.988 139.392 433.828 119.712 450.938 105.082 Z" fill="#f49b3f" opacity="1.00" stroke="#f49b3f" stroke-width="0.25"/>
      <path d="M 466.098 128.882 C 478.178 130.302 490.568 132.372 501.338 138.352 C 506.148 140.872 508.378 146.062 510.858 150.572 C 500.358 141.832 487.668 135.712 474.148 133.502 C 471.048 132.882 466.988 132.652 466.098 128.882 Z" fill="#fde9cf" opacity="1.00" stroke="#fde9cf" stroke-width="0.25"/>
      <path d="M 567.308 131.412 C 573.368 130.192 579.468 128.662 585.708 129.052 C 584.148 130.542 582.498 132.142 580.208 132.292 C 564.878 134.622 550.068 141.222 538.598 151.742 C 536.188 153.912 533.418 155.722 530.258 156.552 C 531.568 152.582 533.398 148.642 536.558 145.802 C 544.988 137.912 556.168 133.742 567.308 131.412 Z" fill="#fde9cf" opacity="1.00" stroke="#fde9cf" stroke-width="0.25"/>
      <path d="M 456.558 134.752 C 459.838 134.132 463.178 133.892 466.508 133.742 C 466.528 136.482 466.548 139.222 466.578 141.972 C 472.558 141.792 478.698 141.412 484.488 143.262 C 497.058 147.232 508.668 154.302 517.918 163.702 C 521.998 167.942 520.018 174.232 519.988 179.442 C 519.708 197.122 519.628 214.802 519.788 232.482 C 519.768 237.282 520.398 242.052 520.848 246.822 C 511.468 232.982 494.408 226.362 478.198 225.602 C 470.858 225.102 463.628 226.592 456.538 228.282 C 456.358 202.332 456.538 176.382 456.448 150.432 C 456.268 145.202 455.908 139.972 456.558 134.752 Z" fill="#fde9cf" opacity="1.00" stroke="#fde9cf" stroke-width="0.25"/>
      <path d="M 585.028 133.702 C 588.578 133.892 592.108 134.372 595.588 135.122 C 595.598 164.912 595.658 194.702 595.618 224.492 C 595.488 225.932 595.758 227.622 594.618 228.742 C 589.478 228.572 584.338 227.812 579.208 228.502 C 567.498 229.082 555.558 230.462 544.718 235.192 C 538.588 237.802 534.628 243.372 529.918 247.802 C 531.798 226.072 529.828 204.242 529.728 182.472 C 529.838 177.032 528.898 171.472 529.988 166.122 C 537.218 156.182 547.918 148.772 559.678 145.192 C 567.808 142.542 576.308 141.002 584.858 140.732 C 584.928 138.392 584.978 136.042 585.028 133.702 Z" fill="#fde9cf" opacity="1.00" stroke="#fde9cf" stroke-width="0.25"/>
      <path d="M 440.008 250.592 C 441.588 247.822 443.528 245.262 445.808 243.032 C 467.588 243.482 489.378 243.082 511.158 243.212 C 511.828 245.102 511.838 247.612 513.738 248.772 C 517.138 250.892 521.298 250.892 525.168 250.922 C 529.698 250.852 534.498 250.882 538.608 248.712 C 540.718 247.722 541.228 245.242 542.118 243.332 C 563.988 243.022 585.878 243.432 607.748 243.082 C 609.818 245.412 611.848 247.772 613.868 250.152 C 610.978 250.522 608.078 250.812 605.178 250.812 C 587.288 250.762 569.408 250.812 551.528 250.792 C 549.038 254.552 546.238 259.202 541.268 259.672 C 534.268 260.112 527.228 259.682 520.218 259.862 C 516.088 259.742 511.728 260.312 507.838 258.632 C 504.688 257.102 503.238 253.742 501.698 250.812 C 481.138 250.542 460.558 251.142 440.008 250.592 Z" fill="#fde9cf" opacity="1.00" stroke="#fde9cf" stroke-width="0.25"/>
    </g>
  </g>
  <g transform="matrix(1.6785130500793457, 0, 0, 1.9824140071868896, -76.59503173828125, -163.00775146484375)">
    <path d="M 224.944 144.785 C 227.984 144.855 231.034 144.895 234.074 144.925 C 233.874 162.185 234.454 179.495 233.624 196.735 C 231.424 198.285 228.774 198.955 226.224 199.725 C 226.094 199.045 225.834 197.675 225.704 196.995 C 220.404 200.015 213.614 202.835 207.814 199.395 C 197.224 193.515 195.574 177.355 204.174 169.065 C 209.414 163.315 218.864 162.085 224.904 167.305 C 224.864 159.805 224.874 152.295 224.944 144.785 Z" fill="#af422c" opacity="1.00" stroke="#af422c" stroke-width="0.25"/>
    <path d="M 140.654 164.695 C 140.614 161.645 140.574 158.605 140.514 155.565 C 143.554 155.845 146.604 156.145 149.644 156.435 C 149.394 159.205 149.104 161.965 148.834 164.725 C 152.164 165.115 155.504 165.465 158.854 165.765 C 158.484 168.365 158.044 170.945 157.614 173.535 C 154.964 173.355 152.314 173.195 149.664 173.065 C 149.644 177.825 149.114 182.645 149.954 187.365 C 150.874 190.895 154.844 191.525 157.864 192.235 C 157.814 194.605 157.754 196.965 157.724 199.345 C 152.384 199.315 145.294 200.385 142.124 194.905 C 138.574 188.275 141.184 180.445 140.774 173.295 C 138.184 172.845 135.584 172.455 132.964 172.125 C 132.874 169.565 132.784 167.005 132.674 164.455 C 135.334 164.525 137.994 164.605 140.654 164.695 Z" fill="#af422c" opacity="1.00" stroke="#af422c" stroke-width="0.25"/>
    <path d="M 185.534 164.505 C 188.414 164.525 191.294 164.525 194.174 164.545 C 193.844 176.905 194.014 189.265 194.094 201.625 C 191.184 201.385 188.284 201.095 185.384 200.775 C 185.414 199.915 185.474 198.205 185.504 197.345 C 181.714 199.255 177.684 201.665 173.254 200.865 C 166.794 199.915 162.684 193.265 162.504 187.105 C 162.174 179.615 162.794 172.125 162.854 164.635 C 165.724 164.645 168.604 164.675 171.484 164.695 C 171.544 171.495 171.104 178.305 171.394 185.095 C 171.464 187.815 172.784 191.005 175.684 191.685 C 179.614 193.055 184.544 190.455 184.724 186.075 C 185.294 178.905 185.214 171.695 185.534 164.505 Z" fill="#af422c" opacity="1.00" stroke="#af422c" stroke-width="0.25"/>
    <path d="M 236.694 164.705 C 239.714 164.685 242.724 164.655 245.744 164.605 C 248.604 172.045 251.274 179.585 253.284 187.305 C 256.574 179.945 258.804 172.185 261.864 164.735 C 264.944 164.715 268.034 164.695 271.114 164.715 C 265.284 181.175 258.114 197.125 252.554 213.685 C 249.934 213.155 247.324 212.615 244.694 212.115 C 246.334 207.515 248.064 202.955 249.564 198.315 C 245.024 187.205 240.824 175.975 236.694 164.705 Z" fill="#af422c" opacity="1.00" stroke="#af422c" stroke-width="0.25"/>
    <path d="M 212.674 173.665 C 216.124 171.675 221.284 171.945 223.644 175.485 C 226.584 180.265 226.054 187.675 221.014 190.855 C 217.244 193.665 211.444 192.285 209.024 188.375 C 206.334 183.525 207.504 176.375 212.674 173.665 Z" fill="#fde9cf" opacity="1.00" stroke="#fde9cf" stroke-width="0.25"/>
    <path d="M 98.728 155.611 C 103.858 151.431 111.098 150.411 117.438 151.831 C 123.538 153.381 127.748 158.791 129.918 164.431 C 126.318 164.121 129.842 164.438 119.658 163.521 C 117.236 163.303 115.526 160.905 113.556 160.443 C 111.01 159.845 108.383 159.806 105.948 160.911 C 103.678 161.841 103.908 164.491 103.748 166.501 C 109.008 169.581 115.068 170.411 120.798 172.151 C 125.908 173.621 128.828 179.201 128.458 184.301 C 128.998 190.041 125.288 195.391 120.358 198.011 C 115.718 200.701 109.968 200.271 104.998 198.851 C 97.708 197.041 94.65 188.574 94.978 181.841 C 99.675 182.403 95.16 181.814 102.764 182.844 C 102.194 186.121 102.459 186.597 104.682 188.357 C 108.912 191.177 110.098 192.051 115.188 190.931 C 119.248 189.861 121.148 184.581 118.568 181.221 C 112.658 177.101 104.088 179.331 98.708 174.081 C 93.278 169.561 93.148 160.071 98.728 155.611 Z" fill="#af422c" opacity="1.00" stroke="#af422c" stroke-width="0.25" style="stroke-width: 0.25px;"/>
  </g>
  <g transform="matrix(1.952981948852539, 0, 0, 2.134403944015503, -192.99032592773438, -207.2422332763672)" style="">
    <path d="M 300.282 162.204 C 305.412 158.024 312.652 157.004 318.992 158.424 C 325.092 159.974 329.302 165.384 331.472 171.024 C 327.872 170.714 331.396 171.031 321.212 170.114 C 318.79 169.896 317.08 167.498 315.11 167.036 C 312.564 166.438 309.937 166.399 307.502 167.504 C 305.232 168.434 305.462 171.084 305.302 173.094 C 310.562 176.174 316.622 177.004 322.352 178.744 C 327.462 180.214 330.382 185.794 330.012 190.894 C 330.552 196.634 326.842 201.984 321.912 204.604 C 317.272 207.294 311.522 206.864 306.552 205.444 C 299.262 203.634 296.204 195.167 296.532 188.434 C 301.229 188.996 296.714 188.407 304.318 189.437 C 303.748 192.714 304.013 193.19 306.236 194.95 C 310.466 197.77 311.652 198.644 316.742 197.524 C 320.802 196.454 322.702 191.174 320.122 187.814 C 314.212 183.694 305.642 185.924 300.262 180.674 C 294.832 176.154 294.702 166.664 300.282 162.204 Z" fill="#af422c" opacity="1.00" stroke="#af422c" stroke-width="0.25"/>
    <path d="M 415.842 161.304 C 418.462 161.764 421.092 162.224 423.712 162.684 C 423.262 165.094 422.822 167.514 422.442 169.944 C 425.302 170.024 428.162 170.114 431.022 170.174 C 430.772 172.634 430.562 175.104 430.402 177.584 C 427.552 177.504 424.702 177.434 421.852 177.364 C 421.952 183.114 421.212 188.984 422.522 194.634 C 423.582 198.374 428.152 198.084 431.222 198.274 C 431.232 200.994 431.242 203.724 431.262 206.444 C 425.692 206.324 418.452 206.044 415.722 200.214 C 412.882 192.954 414.122 184.934 413.922 177.324 C 412.102 177.334 410.282 177.334 408.472 177.344 C 408.382 174.934 408.282 172.534 408.192 170.134 C 410.552 170.024 412.922 169.924 415.282 169.814 C 415.352 166.974 415.572 164.134 415.842 161.304 Z" fill="#af422c" opacity="1.00" stroke="#af422c" stroke-width="0.25"/>
    <path d="M 343.132 174.824 C 348.322 168.604 358.682 167.684 364.562 173.394 C 370.252 178.464 370.222 186.914 369.082 193.854 C 368.042 199.684 363.502 204.444 357.962 206.294 C 353.002 207.584 347.692 206.734 343.372 203.994 C 343.472 210.764 343.442 217.544 343.362 224.324 C 340.642 224.304 337.932 224.294 335.212 224.274 C 334.352 206.384 335.822 188.484 334.692 170.614 C 338.142 170.584 341.072 172.104 343.132 174.824 Z" fill="#af422c" opacity="1.00" stroke="#af422c" stroke-width="0.25"/>
    <path d="M 383.352 170.224 C 392.172 167.764 403.322 171.094 407.492 179.724 C 409.402 184.294 409.312 189.574 408.202 194.344 C 405.282 202.824 395.932 208.354 387.072 207.214 C 375.022 206.244 367.222 191.144 372.752 180.574 C 375.082 176.174 378.292 171.614 383.352 170.224 Z" fill="#af422c" opacity="1.00" stroke="#af422c" stroke-width="0.25"/>
    <path d="M 341.282 184.184 C 345.522 181.494 349.522 176.874 355.052 177.724 C 364.002 179.494 364.662 193.784 356.892 197.544 C 353.372 199.224 348.942 198.614 346.072 195.934 C 342.442 193.184 342.132 188.284 341.282 184.184 Z" fill="#fde9cf" opacity="1.00" stroke="#fde9cf" stroke-width="0.25"/>
    <path d="M 386.472 178.394 C 393.902 174.634 403.112 183.274 400.532 190.944 C 399.072 196.574 392.802 200.294 387.172 198.654 C 381.262 197.404 377.792 190.364 379.942 184.844 C 381.312 182.054 383.582 179.604 386.472 178.394 Z" fill="#fde9cf" opacity="1.00" stroke="#fde9cf" stroke-width="0.25"/>
  </g>
</svg>