<svg id="svg" version="1.1" xmlns="http://www.w3.org/2000/svg" xmlns:xlink="http://www.w3.org/1999/xlink" width="400" height="400" viewBox="0, 0, 400,400"><g id="svgg"><path id="path0" d="M190.889 10.104 C 183.276 13.561,183.582 12.979,158.268 72.285 C 145.435 102.352,134.721 127.194,134.459 127.489 C 134.198 127.784,107.236 130.472,74.544 133.462 C 10.476 139.322,12.495 139.006,6.415 144.122 C 0.111 149.426,-2.078 161.581,1.869 169.362 C 4.263 174.080,5.223 174.971,53.320 217.114 C 75.557 236.597,93.750 252.870,93.750 253.277 C 93.750 253.683,87.910 279.743,80.772 311.187 C 69.804 359.505,67.855 369.035,68.187 372.725 C 69.407 386.307,82.313 395.029,95.695 391.314 C 97.409 390.838,121.388 376.953,148.981 360.459 C 176.574 343.964,199.544 330.469,200.024 330.469 C 200.504 330.469,222.580 343.428,249.081 359.267 C 275.583 375.105,298.822 388.855,300.725 389.822 C 310.769 394.926,323.719 391.106,329.110 381.448 C 333.516 373.554,333.699 374.858,319.233 311.156 C 312.092 279.713,306.250 253.659,306.250 253.259 C 306.250 252.859,325.498 235.662,349.023 215.043 C 372.549 194.424,392.925 176.400,394.305 174.989 C 402.313 166.797,401.949 151.159,393.585 144.122 C 387.097 138.662,391.198 139.285,318.750 132.753 C 289.746 130.137,265.801 127.763,265.540 127.475 C 265.278 127.188,254.578 102.367,241.763 72.317 C 216.332 12.686,216.756 13.488,208.871 10.108 C 204.127 8.074,195.365 8.072,190.889 10.104 M222.136 92.384 C 243.759 143.072,245.341 146.272,250.589 149.911 C 254.767 152.808,256.086 152.983,312.757 158.160 C 342.761 160.901,367.464 163.297,367.652 163.486 C 367.841 163.674,349.195 180.304,326.217 200.442 C 292.631 229.877,284.035 237.800,282.375 240.850 C 278.314 248.311,278.258 247.911,291.720 307.059 C 305.772 368.801,304.606 362.279,301.221 360.187 C 265.247 337.953,207.884 304.651,204.269 303.901 C 195.865 302.156,195.875 302.151,143.975 333.166 C 117.855 348.775,96.373 361.445,96.238 361.321 C 96.102 361.197,101.494 336.890,108.221 307.305 C 121.731 247.884,121.674 248.289,117.618 240.837 C 115.950 237.772,107.417 229.905,73.784 200.421 C 50.815 180.286,32.178 163.655,32.370 163.463 C 32.562 163.272,57.118 160.898,86.941 158.188 C 147.980 152.641,146.394 152.915,152.289 146.904 C 156.135 142.983,185.926 76.620,198.158 44.727 C 198.858 42.900,199.647 41.407,199.911 41.407 C 200.175 41.407,210.176 64.347,222.136 92.384 " stroke="none" fill-rule="evenodd"></path></g></svg>